<?xml version="1.0" standalone="no"?>
<!DOCTYPE svg PUBLIC "-//W3C//DTD SVG 20010904//EN"
 "http://www.w3.org/TR/2001/REC-SVG-20010904/DTD/svg10.dtd">
<svg version="1.0" xmlns="http://www.w3.org/2000/svg"
 width="370.000000pt" height="62.000000pt" viewBox="0 0 370.000000 62.000000"
 preserveAspectRatio="xMidYMid meet">

<g transform="translate(0.000000,62.000000) scale(0.100000,-0.100000)"
fill="#000000" stroke="none">
<path d="M1197 533 l-47 -14 2 -232 3 -232 60 0 60 0 5 144 5 144 50 -64 c27
-35 52 -66 55 -69 3 -3 34 -40 69 -83 l63 -78 57 3 56 3 3 243 2 243 -62 -3
-63 -3 -5 -138 -5 -138 -80 103 c-44 57 -88 112 -98 123 -11 11 -26 30 -34 43
-17 25 -29 26 -96 5z m145 -90 c20 -23 67 -81 103 -128 37 -47 71 -83 76 -79
5 3 9 68 9 145 l0 139 45 0 45 0 0 -225 0 -225 -49 0 -50 0 -115 144 c-63 78
-122 149 -131 156 -13 11 -15 -5 -15 -144 l0 -156 -45 0 -45 0 0 219 0 220 48
14 c46 14 47 13 67 -12 11 -14 37 -45 57 -68z"/>
<path d="M1946 534 c-27 -7 -55 -19 -62 -26 -19 -21 -233 -446 -226 -452 3 -3
31 -6 63 -6 70 0 60 -12 155 193 l68 148 38 -73 c20 -40 37 -76 38 -80 0 -4
-26 -8 -57 -10 l-58 -3 -23 -47 c-13 -26 -21 -52 -17 -58 4 -6 49 -10 110 -10
l104 0 16 -30 c15 -29 18 -30 80 -30 36 0 65 4 65 9 0 5 -31 71 -68 147 -38
77 -90 183 -116 236 -26 54 -50 99 -54 101 -4 2 -29 -2 -56 -9z m124 -156 c40
-84 90 -188 112 -230 l38 -78 -50 0 c-45 0 -51 3 -65 30 l-16 30 -104 0 c-58
0 -105 2 -105 5 0 2 7 20 17 39 16 35 18 35 84 38 l68 3 -47 95 c-26 52 -51
96 -57 97 -5 2 -46 -74 -89 -167 l-80 -170 -48 0 c-26 0 -48 3 -48 8 1 4 49
101 108 217 l107 209 45 12 c25 7 48 12 51 13 3 1 39 -68 79 -151z"/>
<path d="M2355 545 c-5 -2 -29 -9 -53 -15 l-42 -11 2 -232 3 -232 60 0 60 0 5
114 5 114 63 -106 62 -107 44 0 44 0 66 117 65 117 3 -124 3 -125 60 0 60 0 0
240 0 240 -62 3 -61 3 -78 -138 c-42 -76 -83 -146 -89 -156 -10 -15 -24 5
-100 143 -49 88 -93 160 -99 159 -6 0 -15 -2 -21 -4z m107 -165 c44 -80 86
-151 93 -159 16 -16 33 9 130 188 l60 110 53 1 52 0 0 -225 0 -225 -50 0 -50
0 0 130 c0 72 -3 130 -8 130 -4 0 -39 -56 -77 -125 -66 -118 -72 -125 -101
-125 -30 0 -36 7 -105 125 -41 68 -77 125 -81 125 -5 0 -8 -58 -8 -130 l0
-130 -45 0 -45 0 0 220 0 219 33 10 c60 18 64 14 149 -139z"/>
<path d="M76 528 c-22 -69 -27 -89 -21 -98 4 -6 68 -10 165 -10 134 0 161 -3
175 -17 50 -49 47 -161 -5 -213 -17 -17 -33 -20 -115 -20 l-95 0 0 110 c0 79
-4 112 -13 115 -6 3 -37 -3 -67 -12 l-55 -18 -3 -144 c-2 -97 1 -148 9 -157
14 -18 303 -20 364 -3 23 7 57 28 82 53 106 106 90 299 -33 393 -37 28 -38 28
-211 31 -138 3 -174 1 -177 -10z m375 -31 c139 -94 128 -351 -18 -413 -23 -10
-80 -14 -203 -14 l-170 0 0 144 0 144 28 6 c15 3 37 8 49 12 22 6 22 5 25
-107 l3 -114 109 0 108 0 29 34 c50 60 49 160 -2 221 -21 24 -25 25 -180 28
-87 2 -159 7 -159 11 0 4 5 22 11 40 l11 31 162 0 c153 0 165 -1 197 -23z"/>
<path d="M540 535 c0 -10 39 -65 127 -182 l92 -121 3 -89 3 -88 53 -3 c74 -4
82 5 82 97 0 64 4 82 23 108 12 16 30 41 39 54 10 13 49 66 88 118 38 52 70
98 70 103 0 4 -31 8 -68 8 l-68 0 -40 -55 c-21 -30 -55 -77 -74 -105 -19 -27
-37 -50 -40 -50 -3 0 -30 36 -60 80 -97 142 -82 130 -161 130 -38 0 -69 -2
-69 -5z m136 -23 c6 -4 41 -51 79 -104 37 -54 72 -98 76 -98 4 0 40 47 81 105
l73 104 58 1 57 0 -72 -97 c-40 -54 -75 -100 -78 -103 -3 -3 -20 -26 -37 -52
-30 -42 -33 -53 -33 -122 l0 -76 -50 0 -50 0 0 78 0 79 -84 114 c-47 63 -94
126 -105 141 -12 14 -21 29 -21 32 0 9 93 7 106 -2z"/>
<path d="M2942 298 l3 -243 60 0 60 0 3 243 2 242 -65 0 -65 0 2 -242z m108
-3 l0 -225 -50 0 -50 0 0 225 0 225 50 0 50 0 0 -225z"/>
<path d="M3234 521 c-71 -32 -124 -127 -124 -221 0 -105 72 -216 155 -239 44
-12 314 -15 330 -3 14 9 38 90 30 102 -4 6 -71 10 -161 10 -86 0 -164 4 -174
10 -50 27 -52 175 -3 230 3 3 73 7 156 10 150 5 152 5 164 30 6 14 13 39 15
55 l3 30 -175 2 c-153 3 -180 0 -216 -16z m372 -17 c-3 -9 -9 -27 -12 -40 -6
-24 -7 -24 -148 -24 -159 0 -173 -5 -202 -76 -29 -70 -2 -178 52 -202 15 -7
82 -12 171 -12 129 0 144 -2 139 -16 -3 -9 -9 -27 -12 -41 l-6 -24 -168 3
c-165 3 -167 3 -203 31 -53 40 -79 98 -85 183 -4 61 -1 80 20 126 23 50 58 86
98 101 8 3 93 6 189 6 154 1 172 -1 167 -15z"/>
</g>
</svg>
